<svg width="161" height="48" viewBox="0 0 161 48" fill="none" xmlns="http://www.w3.org/2000/svg">
<g clip-path="url(#clip0_1_7)">
<path d="M28.4634 9.6514C28.4634 8.38396 28.2138 7.12893 27.7288 5.95797C27.2437 4.78701 26.5328 3.72304 25.6366 2.82683C24.7404 1.93061 23.6764 1.2197 22.5055 0.734669C21.3345 0.249641 20.0795 -5.54e-08 18.812 0C17.5446 5.54e-08 16.2896 0.249641 15.1186 0.734669C13.9477 1.2197 12.8837 1.93061 11.9875 2.82683C11.0913 3.72304 10.3803 4.78701 9.89532 5.95797C9.4103 7.12893 9.16064 8.38396 9.16064 9.6514H13.0141C13.0141 8.89001 13.1641 8.13607 13.4555 7.43264C13.7469 6.7292 14.1739 6.09005 14.7123 5.55166C15.2507 5.01328 15.8898 4.58621 16.5933 4.29484C17.2967 4.00346 18.0507 3.8535 18.812 3.8535C19.5734 3.8535 20.3274 4.00346 21.0308 4.29483C21.7342 4.58621 22.3734 5.01328 22.9118 5.55166C23.4502 6.09005 23.8772 6.7292 24.1686 7.43264C24.46 8.13607 24.6099 8.89001 24.6099 9.6514H28.4634Z" fill="#121212"/>
<path d="M31.7351 9.16064H6.21615C2.78306 9.16064 0 11.9437 0 15.3768V40.8958C0 44.3289 2.78306 47.1119 6.21615 47.1119H31.7351C35.1682 47.1119 37.9513 44.3289 37.9513 40.8958V15.3768C37.9513 11.9437 35.1682 9.16064 31.7351 9.16064Z" fill="#FF5634"/>
<path d="M31.5715 27.9727C31.5715 29.6268 31.2457 31.2648 30.6127 32.793C29.9797 34.3212 29.0519 35.7097 27.8823 36.8794C26.7126 38.049 25.3241 38.9768 23.7959 39.6098C22.2677 40.2428 20.6297 40.5686 18.9756 40.5686C17.3215 40.5686 15.6836 40.2428 14.1554 39.6098C12.6272 38.9768 11.2386 38.049 10.069 36.8794C8.89937 35.7097 7.97157 34.3212 7.33857 32.793C6.70556 31.2648 6.37976 29.6268 6.37976 27.9727H11.4089C11.4089 28.9664 11.6046 29.9504 11.9849 30.8684C12.3651 31.7864 12.9225 32.6206 13.6251 33.3232C14.3278 34.0259 15.1619 34.5832 16.08 34.9635C16.998 35.3438 17.9819 35.5395 18.9756 35.5395C19.9693 35.5395 20.9533 35.3438 21.8713 34.9635C22.7893 34.5832 23.6235 34.0259 24.3261 33.3232C25.0288 32.6206 25.5861 31.7864 25.9664 30.8684C26.3467 29.9504 26.5424 28.9664 26.5424 27.9727H31.5715Z" fill="white"/>
<path d="M47.8853 34.1106H54.2081C60.1453 34.1106 64.3605 30.4351 64.3605 25.2689C64.3605 20.1027 60.1453 16.453 54.2081 16.453H47.8853V34.1106ZM51.6635 30.6664V19.8971H54.6964C58.0634 19.8971 60.4538 22.1332 60.4538 25.2689C60.4538 28.4303 58.0634 30.6664 54.6964 30.6664H51.6635ZM73.4526 31.1034C71.8847 31.1034 70.7281 30.1267 70.2912 28.6873H79.8782C79.8782 23.6754 77.4364 20.514 73.2726 20.514C69.3916 20.514 66.4358 23.4183 66.4358 27.4279C66.4358 31.5146 69.5201 34.419 73.4783 34.419C75.4316 34.419 77.7192 33.5965 78.9015 32.3628L76.5111 29.9211C75.7915 30.615 74.5064 31.1034 73.4526 31.1034ZM73.4269 23.8296C74.9433 23.8296 75.92 24.6778 76.2798 25.9886H70.3426C70.8309 24.6521 72.0132 23.8296 73.4269 23.8296ZM82.4169 34.1106H86.1694V16.1445H82.4169V34.1106ZM91.3212 18.9975C92.4264 18.9975 93.326 18.0722 93.326 16.9413C93.326 15.8875 92.4264 14.9365 91.3212 14.9365C90.1646 14.9365 89.265 15.8875 89.265 16.9413C89.265 18.0722 90.1646 18.9975 91.3212 18.9975ZM89.4192 34.1106H93.1718V20.8224H89.4192V34.1106ZM100.894 34.1106H104.364L110.044 20.8224H106.138L102.642 29.7925L99.0695 20.8224H95.137L100.894 34.1106ZM117.478 31.1034C115.91 31.1034 114.754 30.1267 114.317 28.6873H123.904C123.904 23.6754 121.462 20.514 117.298 20.514C113.417 20.514 110.461 23.4183 110.461 27.4279C110.461 31.5146 113.546 34.419 117.504 34.419C119.457 34.419 121.745 33.5965 122.927 32.3628L120.537 29.9211C119.817 30.615 118.532 31.1034 117.478 31.1034ZM117.452 23.8296C118.969 23.8296 119.945 24.6778 120.305 25.9886H114.368C114.856 24.6521 116.039 23.8296 117.452 23.8296ZM130.195 23.2898V20.8224H126.442V34.1106H130.195V27.762C130.195 25.2689 131.968 23.6754 134.744 23.6754V20.514C132.714 20.514 131.069 21.5678 130.195 23.2898ZM160.28 16.453H155.859L151.618 22.236L147.378 16.453H142.905L149.357 25.3203L142.905 34.1106H147.3L151.567 28.3275L155.782 34.1106H160.28L153.803 25.2432L160.28 16.453Z" fill="#121212"/>
</g>
<defs>
<clipPath id="clip0_1_7">
<rect width="161" height="48" fill="white"/>
</clipPath>
</defs>
</svg>
